<mxfile host="app.diagrams.net" modified="2023-07-31T17:22:47.412Z" agent="Mozilla/5.0 (Windows NT 10.0; Win64; x64) AppleWebKit/537.36 (KHTML, like Gecko) Chrome/115.0.0.0 Safari/537.36" etag="6-rw1QITbGl9CZARc5d0" version="21.6.5" type="device">
  <diagram name="Page-1" id="BWHNkNiEs-IkO5fIKNXb">
    <mxGraphModel dx="1434" dy="782" grid="1" gridSize="10" guides="1" tooltips="1" connect="1" arrows="1" fold="1" page="1" pageScale="1" pageWidth="850" pageHeight="1100" math="0" shadow="0">
      <root>
        <mxCell id="0" />
        <mxCell id="1" parent="0" />
        <mxCell id="5qmP-6OTH-ESlq7DOyJe-29" value="" style="edgeStyle=orthogonalEdgeStyle;rounded=0;orthogonalLoop=1;jettySize=auto;html=1;" edge="1" parent="1" source="5qmP-6OTH-ESlq7DOyJe-1" target="5qmP-6OTH-ESlq7DOyJe-26">
          <mxGeometry relative="1" as="geometry" />
        </mxCell>
        <mxCell id="5qmP-6OTH-ESlq7DOyJe-1" value="START" style="rounded=1;whiteSpace=wrap;html=1;" vertex="1" parent="1">
          <mxGeometry x="170" y="50" width="120" height="60" as="geometry" />
        </mxCell>
        <mxCell id="5qmP-6OTH-ESlq7DOyJe-2" value="STOP" style="rounded=1;whiteSpace=wrap;html=1;" vertex="1" parent="1">
          <mxGeometry x="380" y="540" width="120" height="60" as="geometry" />
        </mxCell>
        <mxCell id="5qmP-6OTH-ESlq7DOyJe-3" value="Input number from the user&lt;br&gt;until the user gives a number bigger than 0" style="text;html=1;strokeColor=none;fillColor=none;align=center;verticalAlign=middle;whiteSpace=wrap;rounded=0;" vertex="1" parent="1">
          <mxGeometry x="270" y="20" width="310" height="150" as="geometry" />
        </mxCell>
        <mxCell id="5qmP-6OTH-ESlq7DOyJe-24" style="edgeStyle=orthogonalEdgeStyle;rounded=0;orthogonalLoop=1;jettySize=auto;html=1;" edge="1" parent="1" source="5qmP-6OTH-ESlq7DOyJe-8">
          <mxGeometry relative="1" as="geometry">
            <mxPoint x="380" y="385" as="targetPoint" />
          </mxGeometry>
        </mxCell>
        <mxCell id="5qmP-6OTH-ESlq7DOyJe-25" value="no" style="edgeLabel;html=1;align=center;verticalAlign=middle;resizable=0;points=[];" vertex="1" connectable="0" parent="5qmP-6OTH-ESlq7DOyJe-24">
          <mxGeometry x="0.0952" y="1" relative="1" as="geometry">
            <mxPoint as="offset" />
          </mxGeometry>
        </mxCell>
        <mxCell id="5qmP-6OTH-ESlq7DOyJe-39" value="" style="edgeStyle=orthogonalEdgeStyle;rounded=0;orthogonalLoop=1;jettySize=auto;html=1;" edge="1" parent="1" source="5qmP-6OTH-ESlq7DOyJe-8" target="5qmP-6OTH-ESlq7DOyJe-37">
          <mxGeometry relative="1" as="geometry" />
        </mxCell>
        <mxCell id="5qmP-6OTH-ESlq7DOyJe-42" value="yes" style="edgeLabel;html=1;align=center;verticalAlign=middle;resizable=0;points=[];" vertex="1" connectable="0" parent="5qmP-6OTH-ESlq7DOyJe-39">
          <mxGeometry x="0.1111" y="-1" relative="1" as="geometry">
            <mxPoint as="offset" />
          </mxGeometry>
        </mxCell>
        <mxCell id="5qmP-6OTH-ESlq7DOyJe-8" value="user &amp;lt;= 0" style="ellipse;whiteSpace=wrap;html=1;aspect=fixed;" vertex="1" parent="1">
          <mxGeometry x="190" y="345" width="80" height="80" as="geometry" />
        </mxCell>
        <mxCell id="5qmP-6OTH-ESlq7DOyJe-9" value="" style="shape=link;html=1;rounded=0;" edge="1" parent="1">
          <mxGeometry width="100" relative="1" as="geometry">
            <mxPoint x="180" y="660" as="sourcePoint" />
            <mxPoint x="280" y="660" as="targetPoint" />
          </mxGeometry>
        </mxCell>
        <mxCell id="5qmP-6OTH-ESlq7DOyJe-23" style="edgeStyle=orthogonalEdgeStyle;rounded=0;orthogonalLoop=1;jettySize=auto;html=1;" edge="1" parent="1" source="5qmP-6OTH-ESlq7DOyJe-22" target="5qmP-6OTH-ESlq7DOyJe-2">
          <mxGeometry relative="1" as="geometry" />
        </mxCell>
        <mxCell id="5qmP-6OTH-ESlq7DOyJe-22" value="&quot;finish&quot;" style="shape=document;whiteSpace=wrap;html=1;boundedLbl=1;" vertex="1" parent="1">
          <mxGeometry x="390" y="375" width="100" height="50" as="geometry" />
        </mxCell>
        <mxCell id="5qmP-6OTH-ESlq7DOyJe-32" style="edgeStyle=orthogonalEdgeStyle;rounded=0;orthogonalLoop=1;jettySize=auto;html=1;" edge="1" parent="1" source="5qmP-6OTH-ESlq7DOyJe-26">
          <mxGeometry relative="1" as="geometry">
            <mxPoint x="230" y="340" as="targetPoint" />
          </mxGeometry>
        </mxCell>
        <mxCell id="5qmP-6OTH-ESlq7DOyJe-26" value="user" style="shape=card;whiteSpace=wrap;html=1;" vertex="1" parent="1">
          <mxGeometry x="190" y="150" width="80" height="50" as="geometry" />
        </mxCell>
        <mxCell id="5qmP-6OTH-ESlq7DOyJe-41" style="edgeStyle=orthogonalEdgeStyle;rounded=0;orthogonalLoop=1;jettySize=auto;html=1;" edge="1" parent="1" source="5qmP-6OTH-ESlq7DOyJe-33">
          <mxGeometry relative="1" as="geometry">
            <mxPoint x="230" y="640" as="targetPoint" />
          </mxGeometry>
        </mxCell>
        <mxCell id="5qmP-6OTH-ESlq7DOyJe-33" value="user" style="shape=card;whiteSpace=wrap;html=1;" vertex="1" parent="1">
          <mxGeometry x="190" y="550" width="80" height="50" as="geometry" />
        </mxCell>
        <mxCell id="5qmP-6OTH-ESlq7DOyJe-40" value="" style="edgeStyle=orthogonalEdgeStyle;rounded=0;orthogonalLoop=1;jettySize=auto;html=1;" edge="1" parent="1" source="5qmP-6OTH-ESlq7DOyJe-37" target="5qmP-6OTH-ESlq7DOyJe-33">
          <mxGeometry relative="1" as="geometry" />
        </mxCell>
        <mxCell id="5qmP-6OTH-ESlq7DOyJe-37" value="&quot;please enter&lt;br&gt;positive number&quot;" style="shape=document;whiteSpace=wrap;html=1;boundedLbl=1;" vertex="1" parent="1">
          <mxGeometry x="180" y="460" width="100" height="50" as="geometry" />
        </mxCell>
      </root>
    </mxGraphModel>
  </diagram>
</mxfile>
